<svg width="172" height="180" viewBox="0 0 172 180" fill="none" xmlns="http://www.w3.org/2000/svg">
<path d="M12.0792 156.402C8.23341 164.239 4.19292 172.466 0.702515 179.608H3.73532C4.08095 178.951 5.19574 176.687 5.53164 175.976C7.6103 171.595 9.67923 167.16 12.0792 162.063C14.4743 167.16 16.5432 171.571 18.6219 175.976C18.9578 176.692 20.131 179.038 20.4182 179.608H23.451L12.0792 156.402Z" fill="#D52361"/>
<path d="M53.7006 156.402C49.8549 164.239 45.8144 172.466 42.324 179.608H45.3568C45.7024 178.951 46.8172 176.687 47.1531 175.976C49.2318 171.595 51.3007 167.16 53.7006 162.063C56.0957 167.16 58.1647 171.571 60.2433 175.976C60.5792 176.692 61.7524 179.038 62.0396 179.608H65.0724L53.7006 156.402Z" fill="#D52361"/>
<path d="M87.2473 164.919C86.9406 160.076 82.5398 156.386 77.7594 156.469C72.9741 156.386 68.5782 160.076 68.2667 164.919C67.9843 169.422 68.2083 175.026 68.2083 179.524H70.7445C70.9003 175.98 70.4719 169.515 70.9392 166.025C71.2167 163.97 72.2974 161.536 73.8601 160.212C74.9253 159.223 76.3252 158.673 77.7789 158.673C79.2326 158.673 80.6325 159.223 81.6977 160.212C83.2409 161.536 84.3216 163.97 84.5942 166.025C85.081 169.515 84.6331 175.98 84.7889 179.524H87.33C87.3106 175.026 87.5345 169.422 87.2473 164.919Z" fill="#D52361"/>
<path d="M26.4301 156.939V179.546H41.3555V177.214H29.4434V156.939H26.4301Z" fill="#D52361"/>
<path d="M109.29 175.798C108.663 176.462 107.902 176.987 107.058 177.337C106.214 177.687 105.306 177.854 104.392 177.828C103.084 177.852 101.789 177.563 100.615 176.985C99.5621 176.466 98.6553 175.694 97.9761 174.736C97.3139 173.788 96.8122 172.737 96.4914 171.626C95.8228 169.267 95.8228 166.77 96.4914 164.411C96.8113 163.301 97.313 162.252 97.9761 161.305C98.6525 160.346 99.56 159.572 100.615 159.056C101.788 158.477 103.084 158.188 104.392 158.214C105.972 158.189 107.515 158.694 108.773 159.65C110.04 160.633 110.905 162.044 111.208 163.618H113.33C113.222 162.576 112.898 161.569 112.379 160.66C111.861 159.75 111.158 158.959 110.317 158.336C108.606 157.043 106.512 156.358 104.368 156.389C102.782 156.363 101.209 156.687 99.7627 157.338C98.4682 157.92 97.3327 158.805 96.4524 159.918C95.5906 161.022 94.9313 162.269 94.5052 163.603C93.4759 166.934 93.6482 170.521 94.992 173.738C95.7555 175.458 96.9976 176.921 98.57 177.954C100.298 179.084 102.328 179.662 104.392 179.609C106.989 179.609 109.113 178.813 110.765 177.219C112.416 175.626 113.375 173.453 113.642 170.701H111.514C111.368 172.602 110.584 174.398 109.29 175.798Z" fill="#616161"/>
<path d="M132.256 166.553H119.015V156.87H116.893V179.171H119.015V168.363H132.256V179.171H134.384V156.87H132.256V166.553Z" fill="#616161"/>
<path d="M145.406 156.87L136.444 179.171H138.693L141.39 172.234H151.54L154.256 179.171H156.534L147.772 156.87H145.406ZM142.037 170.423L146.501 159.017L150.809 170.447L142.037 170.423Z" fill="#616161"/>
<path d="M154.056 156.87V158.681H161.806V179.171H163.928V158.681H171.703V156.87H154.056Z" fill="#616161"/>
<path d="M51.1597 65.4177C48.7188 65.4177 46.5431 65.316 44.3855 65.4867C43.7752 65.5339 42.987 66.2567 42.6892 66.8706C37.8764 76.754 33.1325 86.6737 28.3633 96.5826C26.6598 100.12 24.8109 103.593 23.2308 107.182C18.8902 117.029 24.1716 128.289 34.3457 131.075C38.1945 132.154 42.2978 131.87 45.9614 130.271C49.625 128.673 52.6239 125.858 54.4506 122.303C56.8225 117.751 59.0164 113.106 61.2212 108.467C61.7261 107.403 62.3109 106.96 63.5314 106.964C78.5861 107.01 93.6433 107.01 108.703 106.964C109.945 106.964 110.519 107.418 111.006 108.475C113.294 113.215 115.474 117.995 117.98 122.615C123.486 132.825 137.369 134.874 145.487 126.611C150.674 121.337 152.12 114.827 149.254 108.039C145.981 100.109 142.261 92.3709 138.114 84.8612C133.566 76.7504 126.069 72.8747 116.748 72.8275C104.595 72.773 92.441 72.8457 80.2873 72.8638H77.8318C78.7653 70.7934 79.5281 69.0499 80.3381 67.3282C82.3359 63.064 84.3337 58.7924 86.3896 54.5572C86.9489 53.4021 87.116 52.4287 86.5276 51.1755C85.536 49.1197 84.795 46.9403 83.4656 44.6956L66.4554 79.7869H70.698C85.7551 79.7869 100.811 79.7773 115.866 79.7579C124.166 79.7397 130.003 83.412 133.472 91.0179C136.254 97.1201 139.251 103.121 142.146 109.179C143.214 111.41 143.729 113.72 143.235 116.211C142.872 118.211 141.925 120.059 140.514 121.522C139.103 122.985 137.291 123.999 135.306 124.435C133.308 124.855 131.23 124.663 129.342 123.886C127.455 123.109 125.844 121.781 124.721 120.076C123.981 118.903 123.319 117.682 122.738 116.422C120.319 111.486 117.904 106.546 115.55 101.581C115.052 100.527 114.489 100.033 113.243 100.033C95.1035 100.072 76.9625 100.072 58.8203 100.033C57.6144 100.033 57.1422 100.578 56.6881 101.537C54.0607 107.044 51.4055 112.537 48.7225 118.017C46.939 121.649 44.2329 124.191 40.0049 124.537C38.2352 124.709 36.4511 124.418 34.8285 123.691C33.2058 122.964 31.8005 121.827 30.7512 120.391C29.7019 118.956 29.0447 117.272 28.8444 115.505C28.6442 113.738 28.9077 111.95 29.6092 110.316C30.4592 108.253 31.4871 106.259 32.4569 104.247C38.5108 91.7371 44.5586 79.23 50.6004 66.7253C50.782 66.3475 50.9273 65.9589 51.1597 65.4177Z" fill="#D52361"/>
<path d="M66.3211 62.7668C66.0887 59.1636 65.8235 56.0398 65.7363 52.9125C65.7389 52.0434 66.036 51.2009 66.579 50.5224C72.9755 43.0436 75.1005 34.5876 71.944 25.1982C68.7294 15.649 61.7735 10.1461 51.9662 8.2573C38.3777 5.63116 24.7638 14.868 22.2575 28.2929C19.635 42.3425 28.6395 55.6585 42.5404 58.2628C46.5376 59.0087 50.6529 58.8235 54.567 57.7216C55.5796 57.5049 56.6356 57.6327 57.5673 58.0848C60.4368 59.4687 63.1973 61.0705 66.3211 62.7668ZM56.3359 33.3454C56.3584 32.4041 56.7456 31.5084 57.4158 30.847C58.086 30.1857 58.9868 29.8104 59.9283 29.8003C60.6035 29.826 61.2564 30.0487 61.8065 30.441C62.3566 30.8334 62.7799 31.3781 63.0241 32.0081C63.2684 32.638 63.3229 33.3257 63.181 33.9863C63.0391 34.6469 62.707 35.2516 62.2255 35.7257C61.7441 36.1998 61.1345 36.5226 60.4718 36.6544C59.8091 36.7862 59.1223 36.7212 58.4961 36.4673C57.8699 36.2135 57.3317 35.782 56.9479 35.2259C56.564 34.6699 56.3513 34.0136 56.3359 33.3381V33.3454ZM47.6183 36.7597C46.7054 36.7561 45.8279 36.4061 45.1631 35.7804C44.4983 35.1547 44.0958 34.3 44.0369 33.389C43.9933 31.5511 45.7804 29.7821 47.6474 29.8148C48.5607 29.8518 49.4252 30.2365 50.0641 30.8902C50.7029 31.5438 51.0676 32.417 51.0836 33.3309C51.0837 33.7845 50.9933 34.2336 50.8179 34.6519C50.6425 35.0702 50.3854 35.4494 50.0618 35.7673C49.7382 36.0851 49.3544 36.3353 48.933 36.5032C48.5116 36.6712 48.061 36.7534 47.6074 36.7452L47.6183 36.7597ZM35.3447 36.7597C34.4303 36.7685 33.5494 36.4159 32.8937 35.7785C32.2379 35.1411 31.8604 34.2706 31.8432 33.3563C31.8672 32.4568 32.2402 31.6019 32.8833 30.9724C33.5264 30.343 34.3892 29.9884 35.289 29.9837C36.1889 29.979 37.0553 30.3245 37.7049 30.9471C38.3546 31.5698 38.7366 32.4207 38.77 33.32C38.7769 33.7724 38.6927 34.2217 38.5222 34.6409C38.3518 35.0601 38.0987 35.4407 37.7781 35.76C37.4574 36.0793 37.0757 36.3308 36.6558 36.4994C36.2359 36.668 35.7863 36.7504 35.3338 36.7416L35.3447 36.7597Z" fill="#D52361"/>
<path d="M130.093 68.3757C126.403 60.6898 122.803 53.1819 119.196 45.6776C113.552 33.9199 107.936 22.1405 102.241 10.4119C97.1954 0.0381103 83.5452 -2.8895 74.6932 4.49854C72.9279 5.97688 71.5912 7.96736 70.1165 9.65274L75.2018 15.7477C75.6449 14.8905 76.1098 14.0078 76.5602 13.1179C78.5072 9.28224 81.7508 7.42615 85.928 7.37167C90.1814 7.31355 93.6212 9.12606 95.5936 12.969C98.3614 18.3956 100.944 23.9239 103.574 29.4377C109.204 41.2039 114.816 52.9773 120.41 64.7579C120.581 65.1964 120.867 65.5809 121.238 65.8716C121.608 66.1622 122.05 66.3483 122.516 66.4106C124.972 66.9046 127.376 67.6492 130.093 68.3757Z" fill="#D52361"/>
</svg>
